<?xml version="1.0" encoding="UTF-8"?><svg id="Layer_1" xmlns="http://www.w3.org/2000/svg" viewBox="0 0 1265.49 420.85"><defs><style>.cls-1{fill:#87898d;}.cls-2{fill:#54b0d6;}</style></defs><g id="logic_x5F_logo_x5F_gr_x5F_bl"><g id="Logo_PMS_Dark"><path class="cls-1" d="M829.77,271.35c-23.94,23.53-52.74,30.84-78.3,30.84-58.42,0-109.54-32.05-109.54-104.27,0-67.35,50.72-105.08,109.13-105.08,29.21,0,52.34,6.49,72.62,27.59l-32.45,36.92c-12.18-9.33-25.56-11.76-37.73-11.76-29.21,0-52.74,19.07-52.74,52.34s24.34,50.31,51.53,50.31c12.99,0,30.84-5.28,40.58-15.02l36.92,38.14Z"/><polygon class="cls-1" points="564.17 96.9 564.17 178.33 564.17 297.72 622.6 297.72 622.6 254.49 622.6 96.9 564.17 96.9"/><path class="cls-1" d="M500.49,264.05c29.21-15.01,42.2-41.79,43-70.19.81-19.88-6.49-40.57-20.69-57.61l24.98-29.8-42.2-32.45-21.33,27.77c-12.98-8.93-32.86-10.96-47.06-10.96-55.99,0-108.33,34.08-108.33,102.24,0,62.08,42.6,101.02,108.33,101.02,36.11,0,48.68,15.02,48.68,34.49,0,24.75-23.53,36.92-49.5,36.92s-48.28-9.73-50.31-40.57h-54.37c-.81,57.61,35.3,92.09,104.67,92.09,55.17,0,108.73-28.81,108.73-88.44,0-11.77,0-44.63-44.63-64.51ZM437.2,240.92c-29.62,0-51.93-19.07-51.93-47.87,0-32.46,22.31-50.31,51.93-50.31s50.31,22.31,50.31,50.31c0,32.05-23.94,47.87-50.31,47.87Z"/><path class="cls-1" d="M203.14,92.91c-66.54,0-109.54,44.63-109.54,105.08s41.79,104.27,109.54,104.27,109.95-43.81,109.95-104.27-43.01-105.08-109.95-105.08ZM203.85,250.32c-35.3,0-50.31-27.18-50.31-52.34s15.42-52.74,50.31-52.74,50.71,27.59,50.71,52.74-15.01,52.34-50.71,52.34Z"/><polygon class="cls-1" points="75.55 17.07 75.55 236.17 75.55 297.79 17.53 297.79 17.53 162.65 17.53 17.07 75.55 17.07"/><polygon class="cls-2" points="564.17 17 564.17 52.3 564.17 75.43 622.6 75.43 622.6 48.35 622.6 17 564.17 17"/><path class="cls-1" d="M840.12,122.21c5.72,0,10.36,4.59,10.36,10.31s-4.63,10.22-10.36,10.22-10.35-4.5-10.35-10.22,4.63-10.31,10.35-10.31ZM840.12,141.24c4.81,0,8.72-3.95,8.72-8.72s-3.9-8.72-8.72-8.72-8.72,3.9-8.72,8.72,3.9,8.72,8.72,8.72ZM836.08,126.66h4.08c2.18,0,4.32.91,4.32,3.41,0,1.68-1.04,2.77-2.68,3.13l3.13,5.09h-2.54l-2.73-4.86h-1.5v4.86h-2.09v-11.63ZM839.84,131.75c1.18,0,2.55-.32,2.55-1.73,0-1.27-1.23-1.59-2.32-1.59h-1.91v3.31h1.68Z"/></g></g><path d="M564.17,359.06h17.8c3.1,0,5.91.35,8.44,1.04,2.53.69,4.68,1.75,6.47,3.17,1.78,1.41,3.16,3.19,4.14,5.33.98,2.14,1.47,4.65,1.47,7.53v.31c0,2.93-.5,5.46-1.51,7.57-1.01,2.11-2.4,3.85-4.18,5.21-1.78,1.36-3.92,2.38-6.43,3.05-2.5.67-5.22,1-8.17,1h-7.74v21.13h-10.3v-55.35ZM581.98,385.92c3.41,0,6-.8,7.78-2.4,1.78-1.6,2.67-3.95,2.67-7.04v-.31c0-3.3-.92-5.65-2.75-7.04-1.83-1.39-4.4-2.09-7.7-2.09h-7.51v18.89h7.51Z"/><path d="M620.68,415.18c-1.86,0-3.61-.23-5.26-.69-1.65-.47-3.08-1.17-4.3-2.13-1.21-.95-2.18-2.19-2.9-3.71-.72-1.52-1.08-3.34-1.08-5.46,0-2.37.54-4.37,1.63-6,1.09-1.62,2.56-2.94,4.41-3.95,1.86-1.01,4.05-1.74,6.58-2.21,2.53-.46,5.24-.7,8.13-.7h5.03v-2.11c0-2.75-.53-4.81-1.59-6.16-1.06-1.35-2.98-2.03-5.77-2.03-2.48,0-4.32.56-5.53,1.68-1.21,1.12-1.95,2.7-2.21,4.74h-9.06c.21-2.37.8-4.4,1.78-6.08.98-1.68,2.24-3.06,3.79-4.14,1.55-1.09,3.33-1.89,5.34-2.4,2.01-.51,4.15-.77,6.42-.77s4.39.24,6.35.73c1.96.49,3.68,1.32,5.15,2.48,1.47,1.16,2.62,2.69,3.44,4.57.82,1.89,1.24,4.22,1.24,7.01v26.55h-9.21v-4.95c-1.34,1.75-2.97,3.15-4.88,4.18-1.91,1.03-4.41,1.55-7.51,1.55ZM622.93,408.44c2.89,0,5.28-.71,7.16-2.13,1.88-1.42,2.83-3.44,2.83-6.08v-4.02h-4.8c-3.56,0-6.4.48-8.51,1.43-2.12.96-3.17,2.67-3.17,5.15,0,1.7.5,3.07,1.51,4.1,1.01,1.03,2.67,1.55,4.99,1.55Z"/><path d="M653.35,373.92h9.37v7.59c1.29-2.58,2.95-4.58,4.99-6,2.04-1.42,4.76-2.15,8.17-2.21v8.75c-2.06,0-3.91.19-5.53.58-1.63.39-3.01,1.02-4.14,1.89-1.14.88-2,2.03-2.59,3.44-.59,1.42-.89,3.21-.89,5.38v21.05h-9.37v-40.49Z"/><path d="M698.55,415.1c-4.02,0-7.07-1.04-9.13-3.11-2.06-2.07-3.1-5.04-3.1-8.92v-22.19h-5.42v-6.97h5.42v-8.9h9.37v8.9h8.9v6.97h-8.9v21.29c0,1.81.4,3.12,1.2,3.95.8.83,1.95,1.24,3.44,1.24,1.81,0,3.33-.26,4.57-.77v7.5c-.72.26-1.6.5-2.63.71-1.03.21-2.27.31-3.71.31Z"/><path d="M750.41,415.18c-2.99,0-5.75-.49-8.28-1.47-2.53-.98-4.72-2.37-6.58-4.18-1.86-1.8-3.3-3.97-4.34-6.5-1.03-2.53-1.55-5.34-1.55-8.44v-.62c0-3.15.53-6,1.59-8.55,1.06-2.56,2.52-4.75,4.37-6.58,1.86-1.83,4.05-3.25,6.58-4.26,2.53-1,5.29-1.51,8.28-1.51s5.68.49,8.21,1.47c2.53.98,4.72,2.39,6.58,4.22,1.86,1.83,3.32,4.01,4.37,6.54,1.06,2.53,1.59,5.34,1.59,8.44v.62c0,3.15-.53,6-1.59,8.56-1.06,2.55-2.52,4.75-4.37,6.58-1.86,1.84-4.05,3.24-6.58,4.22-2.53.98-5.29,1.47-8.28,1.47ZM750.49,407.82c3.51,0,6.24-1.2,8.21-3.59,1.96-2.39,2.94-5.67,2.94-9.84v-.54c0-4.17-.98-7.45-2.94-9.84-1.96-2.39-4.7-3.59-8.21-3.59s-6.26,1.18-8.24,3.55c-1.99,2.37-2.98,5.64-2.98,9.81v.62c0,4.17.98,7.45,2.94,9.84,1.96,2.39,4.72,3.59,8.28,3.59Z"/><path d="M781.61,380.89h-5.5v-6.97h5.5v-5.42c0-4.49,1.17-7.89,3.52-10.22,2.35-2.33,5.71-3.48,10.1-3.48,1.13,0,2.09.06,2.86.19.78.13,1.6.32,2.48.58v7.27c-.57-.21-1.2-.37-1.9-.5s-1.48-.19-2.36-.19c-1.91,0-3.28.55-4.1,1.66-.83,1.11-1.24,2.54-1.24,4.3v5.8h9.21v6.97h-9.21v33.52h-9.37v-33.52Z"/><path d="M840.51,359.06h20.51l17.57,55.35h-16.8l-2.94-10.3h-18.35l-2.94,10.3h-14.79l17.73-55.35ZM843.61,393.2h12.15l-6.04-21.29-6.12,21.29Z"/><path d="M901.9,415.33c-3.05,0-5.86-.44-8.44-1.32-2.58-.87-4.83-2.19-6.74-3.95-1.91-1.7-3.41-3.84-4.49-6.43-1.08-2.58-1.63-5.57-1.63-8.98v-.62c0-3.35.57-6.35,1.7-8.98,1.14-2.63,2.68-4.85,4.65-6.66,1.96-1.81,4.24-3.19,6.85-4.14,2.61-.95,5.4-1.43,8.4-1.43,2.48,0,4.86.28,7.16.85,2.29.57,4.35,1.5,6.15,2.79,1.81,1.34,3.29,3.07,4.45,5.19,1.16,2.12,1.84,4.72,2.05,7.82h-13.01c-.31-1.91-.97-3.37-1.97-4.37-1.01-1.01-2.51-1.51-4.53-1.51-2.48,0-4.39.87-5.73,2.6-1.34,1.73-2.01,4.29-2.01,7.7v.62c0,3.56.67,6.23,2.01,8.01,1.34,1.78,3.33,2.67,5.96,2.67,1.96,0,3.56-.57,4.8-1.7,1.24-1.13,1.99-2.81,2.24-5.03h12.46c-.21,5.11-2.01,9.2-5.42,12.27-3.41,3.07-8.39,4.6-14.94,4.6Z"/><path d="M947.64,415.33c-3.05,0-5.86-.44-8.44-1.32-2.58-.87-4.83-2.19-6.74-3.95-1.91-1.7-3.41-3.84-4.49-6.43-1.08-2.58-1.63-5.57-1.63-8.98v-.62c0-3.35.57-6.35,1.7-8.98,1.14-2.63,2.68-4.85,4.65-6.66,1.96-1.81,4.24-3.19,6.85-4.14,2.61-.95,5.4-1.43,8.4-1.43,2.48,0,4.86.28,7.16.85,2.29.57,4.35,1.5,6.15,2.79,1.81,1.34,3.29,3.07,4.45,5.19,1.16,2.12,1.84,4.72,2.05,7.82h-13.01c-.31-1.91-.97-3.37-1.97-4.37-1.01-1.01-2.51-1.51-4.53-1.51-2.48,0-4.39.87-5.73,2.6-1.34,1.73-2.01,4.29-2.01,7.7v.62c0,3.56.67,6.23,2.01,8.01,1.34,1.78,3.33,2.67,5.96,2.67,1.96,0,3.56-.57,4.8-1.7,1.24-1.13,1.99-2.81,2.24-5.03h12.46c-.21,5.11-2.01,9.2-5.42,12.27-3.41,3.07-8.39,4.6-14.94,4.6Z"/><path d="M994.09,415.33c-3.2,0-6.14-.45-8.82-1.35-2.69-.9-4.98-2.23-6.89-3.99-1.96-1.75-3.5-3.92-4.61-6.5-1.11-2.58-1.66-5.52-1.66-8.83v-.62c0-3.25.57-6.18,1.7-8.78,1.14-2.61,2.68-4.84,4.65-6.7,1.96-1.86,4.28-3.28,6.97-4.26,2.68-.98,5.55-1.47,8.59-1.47,2.79,0,5.42.41,7.9,1.24,2.48.83,4.67,2.09,6.58,3.79,1.86,1.7,3.34,3.87,4.45,6.5,1.11,2.63,1.66,5.76,1.66,9.37v3.64h-28.49c.21,2.69,1.04,4.76,2.51,6.23,1.47,1.47,3.44,2.21,5.92,2.21,2.32,0,4.01-.46,5.07-1.39,1.06-.93,1.71-2.06,1.97-3.41h13.01c-.62,4.59-2.66,8.13-6.12,10.6-3.46,2.48-8.26,3.71-14.4,3.71ZM1001.13,389.56c-.1-2.48-.75-4.36-1.93-5.65-1.19-1.29-2.92-1.93-5.19-1.93-2.12,0-3.84.64-5.19,1.93-1.34,1.29-2.19,3.17-2.55,5.65h14.86Z"/><path d="M1021.18,373.92h13.86v6.56c1.08-2.13,2.72-3.93,4.92-5.41,2.19-1.48,4.99-2.22,8.4-2.22,3.92,0,7.11,1.25,9.56,3.75,2.45,2.51,3.68,6.34,3.68,11.5v26.32h-13.86v-23.47c0-2.32-.46-4.03-1.39-5.14-.93-1.11-2.4-1.66-4.41-1.66s-3.73.62-4.99,1.85c-1.27,1.23-1.9,3.16-1.9,5.79v22.62h-13.86v-40.49Z"/><path d="M1086.2,415.33c-4.59,0-8.12-1.12-10.57-3.37-2.45-2.25-3.68-5.77-3.68-10.57v-18.03h-4.88v-9.45h4.88v-8.44h13.86v8.44h7.97v9.45h-7.97v16.72c0,1.39.35,2.45,1.05,3.17.7.72,1.72,1.08,3.06,1.08.77,0,1.47-.05,2.09-.15.62-.1,1.24-.28,1.86-.54v10.53c-.88.26-1.96.52-3.25.78-1.29.26-2.76.39-4.41.39Z"/><path d="M1114.15,415.33c-1.96,0-3.77-.3-5.42-.89-1.65-.59-3.07-1.51-4.26-2.75-1.24-1.24-2.21-2.8-2.9-4.68-.7-1.88-1.05-4.11-1.05-6.7v-26.4h13.86v24.15c0,2.27.48,3.97,1.43,5.11.95,1.13,2.38,1.7,4.29,1.7,2.12,0,3.79-.62,5.03-1.86,1.24-1.24,1.86-3.17,1.86-5.81v-23.3h13.86v40.49h-13.86v-6.27c-1.08,2.12-2.65,3.84-4.68,5.19-2.04,1.34-4.76,2.01-8.17,2.01Z"/><path d="M1149.67,373.92h13.86v8.05c1.29-3.05,3.01-5.25,5.15-6.62,2.14-1.36,4.79-2.02,7.93-1.97v12.93c-4.23-.1-7.47.54-9.71,1.94-2.24,1.39-3.37,3.71-3.37,6.97v19.2h-13.86v-40.49Z"/><path d="M1202.86,415.33c-3.2,0-6.14-.45-8.82-1.35-2.69-.9-4.98-2.23-6.89-3.99-1.96-1.75-3.5-3.92-4.61-6.5-1.11-2.58-1.66-5.52-1.66-8.83v-.62c0-3.25.57-6.18,1.7-8.78,1.14-2.61,2.68-4.84,4.65-6.7,1.96-1.86,4.28-3.28,6.97-4.26,2.68-.98,5.55-1.47,8.59-1.47,2.79,0,5.42.41,7.9,1.24,2.48.83,4.67,2.09,6.58,3.79,1.86,1.7,3.34,3.87,4.45,6.5,1.11,2.63,1.66,5.76,1.66,9.37v3.64h-28.49c.21,2.69,1.04,4.76,2.51,6.23,1.47,1.47,3.44,2.21,5.92,2.21,2.32,0,4.01-.46,5.07-1.39,1.06-.93,1.71-2.06,1.97-3.41h13.01c-.62,4.59-2.66,8.13-6.12,10.6-3.46,2.48-8.26,3.71-14.4,3.71ZM1209.9,389.56c-.1-2.48-.75-4.36-1.93-5.65-1.19-1.29-2.92-1.93-5.19-1.93-2.12,0-3.84.64-5.19,1.93-1.34,1.29-2.19,3.17-2.55,5.65h14.86Z"/></svg>