<?xml version="1.0" encoding="UTF-8"?>
<svg width="176px" height="34px" viewBox="0 0 176 34" version="1.1" xmlns="http://www.w3.org/2000/svg" xmlns:xlink="http://www.w3.org/1999/xlink">
    <!-- Generator: Sketch 58 (84663) - https://sketch.com -->
    <title>robling symbol color copy 2</title>
    <desc>Created with Sketch.</desc>
    <g id="Welcome" stroke="none" stroke-width="1" fill="none" fill-rule="evenodd">
        <g id="robling-logo/horizontal/color">
            <g id="robling-logo-color">
                <g id="robling-symbol/color">
                    <g id="robling-symbol-color">
                        <path d="M44,30 L38.2750929,30 C35.0541938,24.198895 32.4440663,19.8895028 26.1710037,19.8895028 L26.1710037,14.9171271 L32.8773234,14.9171271 L33.6951673,14.9171271 C36.4052635,14.9171271 38.6022305,12.6909186 38.6022305,9.94475138 C38.6022305,7.19858412 36.4052635,4.97237569 33.6951673,4.97237569 L24.0446097,4.97237569 C21.3345135,4.97237569 19.1375465,2.74616726 19.1375465,7.8443918e-12 L33.6951673,7.8443918e-12 C39.1153596,7.8443918e-12 43.5092937,4.45241685 43.5092937,9.94475138 C43.5092937,13.9485526 41.174306,17.3997295 37.8089292,18.9763195 L44,30 Z" id="Path" fill="#01295F"></path>
                        <path d="M24.3722879,10.0354889 L24.3717461,30 L19.1375465,30 L19.1377143,17.6516525 C21.2503054,15.4169273 23.0231875,12.8498089 24.3722879,10.0354889 Z M17.6660128,19.1040988 L17.6654275,30 L13.4126394,30 L13.4127416,22.361979 C14.9279908,21.4060709 16.35126,20.3145254 17.6660128,19.1040988 Z M12.1051211,23.1402671 L12.1040892,30 L8.50557621,30 L8.5059466,24.8461571 C9.74870415,24.3583005 10.9506377,23.7874324 12.1051211,23.1402671 Z M7.19774438,25.3237567 L7.19702602,30 L3.92565056,30 L3.92618254,26.2197859 C5.04116828,25.9837041 6.13298958,25.6837097 7.19774438,25.3237567 Z M2.61742235,26.4656013 L2.61710037,30 L1.42108547e-13,30 L5.71994703e-05,26.7742089 C0.883872976,26.7102913 1.75689882,26.6068437 2.61742235,26.4656013 Z" id="Combined-Shape" fill="#F56D1F"></path>
                    </g>
                </g>
                <path d="M45.3037037,17.191755 C45.3037037,9.8354244 50.6810499,4.56521739 58.0337478,4.56521739 C65.4230262,4.56521739 70.8003724,9.8354244 70.8003724,17.191755 C70.8003724,24.5480856 65.4230262,29.8182926 58.0337478,29.8182926 C50.6810499,29.8182926 45.3037037,24.5480856 45.3037037,17.191755 Z M65.4596068,17.191755 C65.4596068,12.6169225 62.5331599,9.17664852 58.0337478,9.17664852 C53.5343356,9.17664852 50.6444693,12.6169225 50.6444693,17.191755 C50.6444693,21.7299888 53.5343356,25.2068615 58.0337478,25.2068615 C62.5331599,25.2068615 65.4596068,21.7299888 65.4596068,17.191755 Z M74.305141,29.3791087 L74.305141,4.96780265 L87.1449268,4.96780265 C91.7906613,4.96780265 94.1683994,7.93229409 94.1683994,11.1895748 C94.1683994,14.2638622 92.2662089,16.3133872 89.9616319,16.7891698 C92.5588536,17.191755 94.643947,19.7170625 94.643947,22.79135 C94.643947,26.4512159 92.1930477,29.3791087 87.5473132,29.3791087 L74.305141,29.3791087 Z M79.4995842,14.7762435 L86.0109286,14.7762435 C87.7667968,14.7762435 88.8642143,13.641685 88.8642143,12.0679426 C88.8642143,10.5673976 87.7667968,9.39624048 86.0109286,9.39624048 L79.4995842,9.39624048 L79.4995842,14.7762435 Z M79.4995842,24.9506709 L86.1938315,24.9506709 C88.1691832,24.9506709 89.339762,23.8161124 89.339762,22.0593768 C89.339762,20.5222331 88.2423444,19.2046813 86.1938315,19.2046813 L79.4995842,19.2046813 L79.4995842,24.9506709 Z M98.4047797,29.3791087 L98.4047797,4.96780265 L103.599223,4.96780265 L103.599223,24.8042763 L113.914948,24.8042763 L113.914948,29.3791087 L98.4047797,29.3791087 Z M117.383136,29.3791087 L117.383136,4.96780265 L122.57758,4.96780265 L122.57758,29.3791087 L117.383136,29.3791087 Z M144.079997,29.3791087 L132.44737,12.9829091 L132.44737,29.3791087 L127.252927,29.3791087 L127.252927,4.96780265 L132.593692,4.96780265 L143.897094,20.7784237 L143.897094,4.96780265 L149.091537,4.96780265 L149.091537,29.3791087 L144.079997,29.3791087 Z M152.596305,17.191755 C152.596305,9.4694378 158.449199,4.56521739 165.582414,4.56521739 C170.630535,4.56521739 173.813046,7.0173276 175.678655,9.90862172 L171.362146,12.2509359 C170.228148,10.5307989 168.143055,9.17664852 165.582414,9.17664852 C161.156163,9.17664852 157.937071,12.5803239 157.937071,17.191755 C157.937071,21.8031862 161.156163,25.2068615 165.582414,25.2068615 C167.813829,25.2068615 169.789181,24.291895 170.850018,23.3403299 L170.850018,20.3758384 L164.338674,20.3758384 L164.338674,15.9108019 L175.9713,15.9108019 L175.9713,25.2434602 C173.48382,28.0249583 170.008665,29.8548913 165.582414,29.8548913 C158.449199,29.8548913 152.596305,24.8774736 152.596305,17.191755 Z" id="obling" fill="#01295F"></path>
                <g id="Group" transform="translate(45.303704, 4.565217)"></g>
            </g>
        </g>
    </g>
</svg>